Coordinates
version=1
nRows=20
nColumns=38
inDegrees=no

Units are S.I. units (second, meters, Newtons, ...)
If the header above contains a line with 'inDegrees', this indicates whether rotational values are in degrees (yes) or radians (no).

endheader
time	pelvis_tilt	pelvis_list	pelvis_rotation	pelvis_tx	pelvis_ty	pelvis_tz	hip_flexion_r	hip_adduction_r	hip_rotation_r	knee_angle_r	ankle_angle_r	subtalar_angle_r	mtp_angle_r	hip_flexion_l	hip_adduction_l	hip_rotation_l	knee_angle_l	ankle_angle_l	subtalar_angle_l	mtp_angle_l	lumbar_extension	lumbar_bending	lumbar_rotation	arm_flex_r	arm_add_r	arm_rot_r	elbow_flex_r	pro_sup_r	wrist_flex_r	wrist_dev_r	arm_flex_l	arm_add_l	arm_rot_l	elbow_flex_l	pro_sup_l	wrist_flex_l	wrist_dev_l
10	0.768966	1.4728	2.09381	0.768658	-0.279854	0.904416	-0.0933553	-0.114207	-0.320654	0.374623	-0.101879	0	0	0.413363	-0.171898	-0.341287	0.278502	-0.298244	0	0	-0.0631939	-0.00661115	-0.0496556	-0.256231	-0.493519	-1.5708	1.27916	1.49069	0	0	0.281187	-0.162307	0.52399	0.160093	1.5708	0	0
10.01	0.789609	1.47362	2.07963	0.763625	-0.280913	0.903388	-0.0985711	-0.115187	-0.331768	0.37986	-0.0996896	0	0	0.412548	-0.168313	-0.32996	0.258318	-0.300744	0	0	-0.0648807	-0.00406233	-0.0558214	-0.24883	-0.477534	-1.5708	1.29265	1.51635	0	0	0.278428	-0.165614	0.514058	0.158926	1.5708	0	0
10.02	0.808875	1.47404	2.06707	0.758421	-0.282018	0.902496	-0.103538	-0.117024	-0.340479	0.385726	-0.0981583	0	0	0.410662	-0.163375	-0.316742	0.23542	-0.3054	0	0	-0.0669796	-0.0036055	-0.0591716	-0.249602	-0.457208	-1.5708	1.30702	1.5343	0	0	0.278398	-0.16732	0.505962	0.154019	1.5708	0	0
10.03	0.854141	1.47181	2.02708	0.753203	-0.283142	0.901022	-0.103519	-0.116733	-0.342208	0.391612	-0.105635	0	0	0.414425	-0.161562	-0.307231	0.21829	-0.307816	0	0	-0.0636338	0.000279686	-0.0674311	-0.221104	-0.443369	-1.5708	1.31872	1.55566	0	0	0.272364	-0.17236	0.500571	0.153341	1.5708	0	0
10.04	0.86807	1.42214	1.99874	0.750367	-0.282143	0.893736	-0.020833	-0.142647	-0.258486	0.359907	-0.136792	0	0	0.463672	-0.147184	-0.302039	0.210208	-0.305899	0	0	-0.0118811	-0.0271261	-0.0414942	-0.249895	-0.414256	-1.5708	1.33281	1.55569	0	0	0.268628	-0.178514	0.506077	0.152373	1.5708	0	0
10.05	0.861138	1.47858	2.03441	0.742259	-0.285676	0.899358	-0.119521	-0.118386	-0.364023	0.406413	-0.0916459	0	0	0.401275	-0.152702	-0.281308	0.172256	-0.318087	0	0	-0.0760927	0.00303726	-0.0790416	-0.204441	-0.402033	-1.5708	1.35148	1.5708	0	0	0.269167	-0.179288	0.483702	0.15065	1.5708	0	0
10.06	0.873533	1.48215	2.02853	0.736566	-0.2869	0.898615	-0.128224	-0.118174	-0.368101	0.411024	-0.0917494	0	0	0.393046	-0.148342	-0.26669	0.145901	-0.326646	0	0	-0.0826813	0.00374674	-0.0798321	-0.203087	-0.380655	-1.5708	1.36107	1.5708	0	0	0.271818	-0.17982	0.47694	0.14314	1.5708	0	0
10.07	0.920308	1.47756	1.98832	0.73067	-0.288172	0.896664	-0.126715	-0.119319	-0.376967	0.418971	-0.0882418	0	0	0.397037	-0.144583	-0.253484	0.12756	-0.331027	0	0	-0.0774697	0.00557829	-0.0863686	-0.183814	-0.363348	-1.5708	1.36899	1.5708	0	0	0.266501	-0.184002	0.469439	0.142193	1.5708	0	0
10.08	0.968619	1.47735	1.94547	0.724443	-0.289505	0.895489	-0.131297	-0.116717	-0.376804	0.4205	-0.093493	0	0	0.408795	-0.150262	-0.274515	0.145955	-0.314334	0	0	-0.0788551	0.00726665	-0.0856507	-0.178404	-0.345262	-1.5708	1.36829	1.5418	0	0	0.26449	-0.188981	0.483107	0.1446	1.5708	0	0
10.09	0.998504	1.47904	1.92277	0.718226	-0.291115	0.894189	-0.136888	-0.116743	-0.385306	0.429242	-0.0916985	0	0	0.406873	-0.148213	-0.266451	0.133269	-0.317295	0	0	-0.0822469	0.0113738	-0.0900418	-0.16127	-0.327885	-1.5708	1.37158	1.54343	0	0	0.262843	-0.191317	0.478104	0.142141	1.5708	0	0
10.1	1.03456	1.47863	1.89324	0.71189	-0.292576	0.892785	-0.140248	-0.116509	-0.391752	0.437541	-0.0905648	0	0	0.407122	-0.146077	-0.259626	0.121987	-0.320199	0	0	-0.0834281	0.0137144	-0.0923215	-0.148501	-0.30754	-1.5708	1.37218	1.54388	0	0	0.261587	-0.193512	0.473256	0.139535	1.5708	0	0
10.11	1.06954	1.47923	1.86567	0.705146	-0.294378	0.891699	-0.144999	-0.117363	-0.400462	0.446652	-0.0908651	0	0	0.40564	-0.143271	-0.254051	0.111406	-0.323344	0	0	-0.0859396	0.0163896	-0.0940596	-0.138837	-0.287508	-1.5708	1.3679	1.54262	0	0	0.261441	-0.1944	0.469614	0.135702	1.5708	0	0
10.12	1.10389	1.47967	1.83871	0.6982	-0.296146	0.890608	-0.149535	-0.11827	-0.407617	0.456541	-0.0919948	0	0	0.403557	-0.140431	-0.248539	0.101675	-0.326487	0	0	-0.0883398	0.0186471	-0.0943909	-0.131632	-0.267608	-1.5708	1.35898	1.53918	0	0	0.262226	-0.19474	0.466846	0.130907	1.5708	0	0
10.13	1.12995	1.47686	1.81895	0.691071	-0.297851	0.889228	-0.150655	-0.12065	-0.416219	0.466482	-0.0935298	0	0	0.403875	-0.136043	-0.24446	0.0931803	-0.329575	0	0	-0.0872035	0.0183432	-0.0923184	-0.121621	-0.244625	-1.5708	1.34703	1.53386	0	0	0.263508	-0.194532	0.464648	0.125016	1.5708	0	0
10.14	1.1503	1.47593	1.80644	0.683578	-0.299883	0.888098	-0.15216	-0.125015	-0.426978	0.48416	-0.0962006	0	0	0.399901	-0.129661	-0.23642	0.0815702	-0.336609	0	0	-0.0879249	0.0186859	-0.0897446	-0.131238	-0.230635	-1.5557	1.32444	1.51541	0	0	0.268395	-0.190928	0.460504	0.11238	1.5708	0	0
10.15	1.16734	1.47334	1.79566	0.675823	-0.301844	0.886978	-0.152879	-0.129178	-0.43363	0.497967	-0.0992799	0	0	0.396962	-0.123143	-0.232405	0.0736185	-0.345677	0	0	-0.0867877	0.0176042	-0.0869926	-0.145037	-0.217962	-1.50491	1.29886	1.49343	0	0	0.271332	-0.188394	0.455336	0.101989	1.5708	0	0
10.16	1.18135	1.47066	1.78767	0.667747	-0.303885	0.885964	-0.153781	-0.133529	-0.438701	0.511736	-0.103597	0	0	0.393754	-0.116062	-0.230405	0.0694717	-0.359269	0	0	-0.0853968	0.0159185	-0.0827412	-0.16907	-0.211566	-1.43579	1.26773	1.46111	0	0	0.275167	-0.185038	0.449985	0.0904103	1.5708	0	0
10.17	1.19445	1.46862	1.7799	0.659383	-0.305919	0.885111	-0.155466	-0.137572	-0.441272	0.525	-0.109673	0	0	0.392337	-0.110609	-0.236862	0.0763153	-0.373968	0	0	-0.084605	0.0140175	-0.0752046	-0.189534	-0.20893	-1.39374	1.23303	1.00117	0	0	0.283971	-0.176862	0.430337	0.0691933	1.5708	0	0
10.18	1.21041	1.46771	1.76879	0.650712	-0.307991	0.884428	-0.158578	-0.140739	-0.441027	0.537185	-0.115325	0	0	0.393048	-0.10776	-0.25241	0.0950441	-0.375514	0	0	-0.0856221	0.0125955	-0.0654209	-0.263646	-0.238356	-1.23385	1.19156	0.952499	0	0	0.289741	-0.172247	0.429016	0.0592842	1.5708	0	0
10.19	1.11494	1.418	1.8533	0.643405	-0.309975	0.878072	0.000376211	-0.224335	-0.431841	0.836934	-0.0702968	0	0	0.442842	-0.0829566	-0.27877	0.117672	-0.375224	0	0	-0.0293894	-0.0142354	-0.0565891	-0.124128	-0.152318	-1.40328	1.16875	0.956735	0	0	0.276703	-0.175067	0.417159	0.0554772	1.5708	0	0
